<svg xmlns="http://www.w3.org/2000/svg" xmlns:xlink="http://www.w3.org/1999/xlink" width="500" zoomAndPan="magnify" viewBox="0 0 375 374.999991" height="500" preserveAspectRatio="xMidYMid meet" version="1.0"><defs><g/><clipPath id="8e6d504107"><rect x="0" width="225" y="0" height="101"/></clipPath><clipPath id="9331ce13b2"><rect x="0" width="227" y="0" height="70"/></clipPath></defs><rect x="-37.5" width="450" fill="#ffffff" y="-37.499999" height="449.999989" fill-opacity="1"/><rect x="-37.5" width="450" fill="#ffffff" y="-37.499999" height="449.999989" fill-opacity="1"/><g transform="matrix(1, 0, 0, 1, 84, 114)"><g clip-path="url(#8e6d504107)"><g fill="#000000" fill-opacity="1"><g transform="translate(1.017553, 78.500768)"><g><path d="M 39.484375 -12.4375 L 17.671875 -12.4375 L 13.515625 0 L 0.296875 0 L 22.765625 -60.390625 L 34.3125 -60.390625 L 56.90625 0 L 43.671875 0 Z M 21.03125 -22.53125 L 36.125 -22.53125 L 28.53125 -45.125 Z M 21.03125 -22.53125 "/></g></g></g><g fill="#000000" fill-opacity="1"><g transform="translate(57.715708, 78.500768)"><g><path d="M 31.484375 -4.5625 C 28.523438 -0.96875 24.429688 0.828125 19.203125 0.828125 C 14.390625 0.828125 10.71875 -0.550781 8.1875 -3.3125 C 5.65625 -6.082031 4.363281 -10.132812 4.3125 -15.46875 L 4.3125 -44.875 L 16.296875 -44.875 L 16.296875 -15.890625 C 16.296875 -11.210938 18.425781 -8.875 22.6875 -8.875 C 26.75 -8.875 29.539062 -10.285156 31.0625 -13.109375 L 31.0625 -44.875 L 43.09375 -44.875 L 43.09375 0 L 31.8125 0 Z M 31.484375 -4.5625 "/></g></g></g><g fill="#000000" fill-opacity="1"><g transform="translate(105.247607, 78.500768)"><g><path d="M 2.734375 -22.765625 C 2.734375 -29.765625 4.300781 -35.335938 7.4375 -39.484375 C 10.582031 -43.640625 14.878906 -45.71875 20.328125 -45.71875 C 24.691406 -45.71875 28.300781 -44.082031 31.15625 -40.8125 L 31.15625 -63.71875 L 43.1875 -63.71875 L 43.1875 0 L 32.359375 0 L 31.78125 -4.765625 C 28.789062 -1.035156 24.945312 0.828125 20.25 0.828125 C 14.957031 0.828125 10.710938 -1.25 7.515625 -5.40625 C 4.328125 -9.570312 2.734375 -15.359375 2.734375 -22.765625 Z M 14.71875 -21.90625 C 14.71875 -17.695312 15.453125 -14.472656 16.921875 -12.234375 C 18.390625 -9.992188 20.519531 -8.875 23.3125 -8.875 C 27.019531 -8.875 29.632812 -10.4375 31.15625 -13.5625 L 31.15625 -31.28125 C 29.65625 -34.40625 27.066406 -35.96875 23.390625 -35.96875 C 17.609375 -35.96875 14.71875 -31.28125 14.71875 -21.90625 Z M 14.71875 -21.90625 "/></g></g></g><g fill="#000000" fill-opacity="1"><g transform="translate(153.111316, 78.500768)"><g><path d="M 17.25 0 L 5.234375 0 L 5.234375 -44.875 L 17.25 -44.875 Z M 4.515625 -56.5 C 4.515625 -58.289062 5.113281 -59.765625 6.3125 -60.921875 C 7.519531 -62.085938 9.160156 -62.671875 11.234375 -62.671875 C 13.285156 -62.671875 14.921875 -62.085938 16.140625 -60.921875 C 17.359375 -59.765625 17.96875 -58.289062 17.96875 -56.5 C 17.96875 -54.675781 17.347656 -53.179688 16.109375 -52.015625 C 14.878906 -50.859375 13.253906 -50.28125 11.234375 -50.28125 C 9.222656 -50.28125 7.597656 -50.859375 6.359375 -52.015625 C 5.128906 -53.179688 4.515625 -54.675781 4.515625 -56.5 Z M 4.515625 -56.5 "/></g></g></g><g fill="#000000" fill-opacity="1"><g transform="translate(175.632975, 78.500768)"><g><path d="M 2.734375 -22.859375 C 2.734375 -27.304688 3.585938 -31.269531 5.296875 -34.75 C 7.015625 -38.238281 9.484375 -40.9375 12.703125 -42.84375 C 15.929688 -44.757812 19.675781 -45.71875 23.9375 -45.71875 C 29.988281 -45.71875 34.929688 -43.863281 38.765625 -40.15625 C 42.597656 -36.445312 44.734375 -31.410156 45.171875 -25.046875 L 45.25 -21.984375 C 45.25 -15.097656 43.328125 -9.570312 39.484375 -5.40625 C 35.640625 -1.25 30.484375 0.828125 24.015625 0.828125 C 17.546875 0.828125 12.378906 -1.242188 8.515625 -5.390625 C 4.660156 -9.535156 2.734375 -15.175781 2.734375 -22.3125 Z M 14.71875 -21.984375 C 14.71875 -17.722656 15.519531 -14.460938 17.125 -12.203125 C 18.726562 -9.953125 21.023438 -8.828125 24.015625 -8.828125 C 26.921875 -8.828125 29.1875 -9.941406 30.8125 -12.171875 C 32.445312 -14.398438 33.265625 -17.960938 33.265625 -22.859375 C 33.265625 -27.035156 32.445312 -30.269531 30.8125 -32.5625 C 29.1875 -34.851562 26.894531 -36 23.9375 -36 C 21 -36 18.726562 -34.859375 17.125 -32.578125 C 15.519531 -30.296875 14.71875 -26.765625 14.71875 -21.984375 Z M 14.71875 -21.984375 "/></g></g></g></g></g><g transform="matrix(1, 0, 0, 1, 80, 188)"><g clip-path="url(#9331ce13b2)"><g fill="#028daf" fill-opacity="1"><g transform="translate(0.837412, 53.981107)"><g><path d="M 28.796875 -18.0625 L 12.3125 -18.0625 L 12.3125 -6.890625 L 31.65625 -6.890625 L 31.65625 0 L 3.71875 0 L 3.71875 -41.671875 L 31.59375 -41.671875 L 31.59375 -34.71875 L 12.3125 -34.71875 L 12.3125 -24.78125 L 28.796875 -24.78125 Z M 28.796875 -18.0625 "/></g></g></g><g fill="#028daf" fill-opacity="1"><g transform="translate(33.801116, 53.981107)"><g><path d="M 10.78125 -30.96875 L 11.046875 -27.390625 C 13.253906 -30.148438 16.222656 -31.53125 19.953125 -31.53125 C 23.234375 -31.53125 25.671875 -30.566406 27.265625 -28.640625 C 28.867188 -26.710938 29.691406 -23.832031 29.734375 -20 L 29.734375 0 L 21.46875 0 L 21.46875 -19.796875 C 21.46875 -21.554688 21.082031 -22.832031 20.3125 -23.625 C 19.550781 -24.414062 18.285156 -24.8125 16.515625 -24.8125 C 14.179688 -24.8125 12.4375 -23.816406 11.28125 -21.828125 L 11.28125 0 L 3 0 L 3 -30.96875 Z M 10.78125 -30.96875 "/></g></g></g><g fill="#000000" fill-opacity="1"><g transform="translate(66.622215, 53.981107)"><g/></g></g><g fill="#000000" fill-opacity="1"><g transform="translate(79.498582, 53.981107)"><g><path d="M 35.078125 -34.71875 L 22.328125 -34.71875 L 22.328125 0 L 13.734375 0 L 13.734375 -34.71875 L 1.140625 -34.71875 L 1.140625 -41.671875 L 35.078125 -41.671875 Z M 35.078125 -34.71875 "/></g></g></g><g fill="#000000" fill-opacity="1"><g transform="translate(113.206133, 53.981107)"><g><path d="M 17.421875 0.578125 C 12.890625 0.578125 9.195312 -0.8125 6.34375 -3.59375 C 3.488281 -6.382812 2.0625 -10.097656 2.0625 -14.734375 L 2.0625 -15.546875 C 2.0625 -18.648438 2.660156 -21.425781 3.859375 -23.875 C 5.066406 -26.332031 6.769531 -28.222656 8.96875 -29.546875 C 11.175781 -30.867188 13.691406 -31.53125 16.515625 -31.53125 C 20.742188 -31.53125 24.070312 -30.195312 26.5 -27.53125 C 28.9375 -24.863281 30.15625 -21.078125 30.15625 -16.171875 L 30.15625 -12.796875 L 10.453125 -12.796875 C 10.710938 -10.773438 11.515625 -9.148438 12.859375 -7.921875 C 14.203125 -6.703125 15.90625 -6.09375 17.96875 -6.09375 C 21.15625 -6.09375 23.644531 -7.25 25.4375 -9.5625 L 29.5 -5.015625 C 28.257812 -3.253906 26.582031 -1.878906 24.46875 -0.890625 C 22.351562 0.0859375 20.003906 0.578125 17.421875 0.578125 Z M 16.484375 -24.84375 C 14.835938 -24.84375 13.503906 -24.285156 12.484375 -23.171875 C 11.460938 -22.066406 10.8125 -20.488281 10.53125 -18.4375 L 22.03125 -18.4375 L 22.03125 -19.09375 C 22 -20.914062 21.503906 -22.328125 20.546875 -23.328125 C 19.585938 -24.335938 18.234375 -24.84375 16.484375 -24.84375 Z M 16.484375 -24.84375 "/></g></g></g><g fill="#000000" fill-opacity="1"><g transform="translate(144.882193, 53.981107)"><g><path d="M 14.96875 -21.71875 L 20.171875 -30.96875 L 29.015625 -30.96875 L 20.203125 -15.796875 L 29.390625 0 L 20.515625 0 L 15 -9.734375 L 9.5 0 L 0.59375 0 L 9.78125 -15.796875 L 1 -30.96875 L 9.875 -30.96875 Z M 14.96875 -21.71875 "/></g></g></g><g fill="#000000" fill-opacity="1"><g transform="translate(174.698321, 53.981107)"><g><path d="M 13.078125 -38.578125 L 13.078125 -30.96875 L 18.375 -30.96875 L 18.375 -24.890625 L 13.078125 -24.890625 L 13.078125 -9.4375 C 13.078125 -8.300781 13.296875 -7.484375 13.734375 -6.984375 C 14.171875 -6.484375 15.007812 -6.234375 16.25 -6.234375 C 17.164062 -6.234375 17.976562 -6.300781 18.6875 -6.4375 L 18.6875 -0.171875 C 17.0625 0.328125 15.390625 0.578125 13.671875 0.578125 C 7.878906 0.578125 4.925781 -2.351562 4.8125 -8.21875 L 4.8125 -24.890625 L 0.28125 -24.890625 L 0.28125 -30.96875 L 4.8125 -30.96875 L 4.8125 -38.578125 Z M 13.078125 -38.578125 "/></g></g></g><g fill="#000000" fill-opacity="1"><g transform="translate(194.499435, 53.981107)"><g><path d="M 17.421875 0.578125 C 12.890625 0.578125 9.195312 -0.8125 6.34375 -3.59375 C 3.488281 -6.382812 2.0625 -10.097656 2.0625 -14.734375 L 2.0625 -15.546875 C 2.0625 -18.648438 2.660156 -21.425781 3.859375 -23.875 C 5.066406 -26.332031 6.769531 -28.222656 8.96875 -29.546875 C 11.175781 -30.867188 13.691406 -31.53125 16.515625 -31.53125 C 20.742188 -31.53125 24.070312 -30.195312 26.5 -27.53125 C 28.9375 -24.863281 30.15625 -21.078125 30.15625 -16.171875 L 30.15625 -12.796875 L 10.453125 -12.796875 C 10.710938 -10.773438 11.515625 -9.148438 12.859375 -7.921875 C 14.203125 -6.703125 15.90625 -6.09375 17.96875 -6.09375 C 21.15625 -6.09375 23.644531 -7.25 25.4375 -9.5625 L 29.5 -5.015625 C 28.257812 -3.253906 26.582031 -1.878906 24.46875 -0.890625 C 22.351562 0.0859375 20.003906 0.578125 17.421875 0.578125 Z M 16.484375 -24.84375 C 14.835938 -24.84375 13.503906 -24.285156 12.484375 -23.171875 C 11.460938 -22.066406 10.8125 -20.488281 10.53125 -18.4375 L 22.03125 -18.4375 L 22.03125 -19.09375 C 22 -20.914062 21.503906 -22.328125 20.546875 -23.328125 C 19.585938 -24.335938 18.234375 -24.84375 16.484375 -24.84375 Z M 16.484375 -24.84375 "/></g></g></g></g></g></svg>